<svg width="15" height="24" viewBox="0 0 15 24" fill="none" xmlns="http://www.w3.org/2000/svg">
<path fill-rule="evenodd" clip-rule="evenodd" d="M7.5 0C9.66969 0 11.4286 1.51535 11.4286 3.38462V12.0336C13.5696 13.1701 15 15.209 15 17.5385C15 21.1071 11.6421 24 7.5 24C3.35786 24 0 21.1071 0 17.5385C0 15.209 1.43036 13.1701 3.57143 12.0336V3.38462C3.57143 1.51534 5.33031 0 7.5 0ZM5.35714 12.9732C3.26298 13.7036 1.78571 15.4724 1.78571 17.5385C1.78571 20.2574 4.34409 22.4615 7.5 22.4615C10.6559 22.4615 13.2143 20.2574 13.2143 17.5385C13.2143 15.4724 11.737 13.7036 9.64286 12.9732V3.38462C9.64286 2.36501 8.68347 1.53846 7.5 1.53846C6.31653 1.53846 5.35714 2.36501 5.35714 3.38462V12.9732Z" fill="white"/>
<path d="M12.2369 17.4857C12.2369 19.758 10.1161 21.6 7.50003 21.6C4.88394 21.6 2.76318 19.758 2.76318 17.4857C2.76318 15.2135 4.88394 13.3714 7.50003 13.3714C10.1161 13.3714 12.2369 15.2135 12.2369 17.4857Z" fill="#D9D9D9"/>
<path d="M8.68424 5.00001C8.68424 4.43194 8.15402 4.00001 7.5 4.00001C6.84598 4.00001 6.31582 4.43194 6.31582 5.00001V16.1143C6.31582 16.6824 6.846 17.1429 7.50003 17.1429C8.15405 17.1429 8.68424 16.6824 8.68424 16.1143V5.00001Z" fill="#D9D9D9"/>
</svg>
